<svg width="25" height="25" viewBox="0 0 25 25" fill="none" xmlns="http://www.w3.org/2000/svg">
<path d="M12.5 23.0119C18.4737 23.0119 23.3164 18.1692 23.3164 12.1955C23.3164 6.22175 18.4737 1.37909 12.5 1.37909C6.52626 1.37909 1.68359 6.22175 1.68359 12.1955C1.68359 18.1692 6.52626 23.0119 12.5 23.0119Z" fill="#171A1D" stroke="url(#paint0_linear_755_18184)" stroke-width="2" stroke-miterlimit="10"/>
<path d="M16.5786 6.39697H12.0565C11.982 6.39697 11.9105 6.42659 11.8577 6.47931C11.805 6.53203 11.7754 6.60353 11.7754 6.67808V8.87586C11.7754 9.05219 11.7 9.21958 11.5697 9.33842L11.5607 9.34608C11.447 9.44831 11.2988 9.50581 11.1455 9.50581H8.42125C8.34669 9.50581 8.27519 9.53542 8.22247 9.58814C8.16975 9.64086 8.14014 9.71236 8.14014 9.78692V13.0056C8.14014 13.1615 8.26664 13.2867 8.42125 13.2867H11.3103C11.3849 13.2867 11.4564 13.2571 11.5091 13.2044C11.5618 13.1517 11.5914 13.0802 11.5914 13.0056V9.96836C11.5914 9.79203 11.6668 9.62464 11.7971 9.50581C11.9109 9.40358 12.0591 9.34608 12.2124 9.34608H16.5786C16.6155 9.34608 16.6521 9.33881 16.6862 9.32469C16.7203 9.31056 16.7513 9.28985 16.7774 9.26375C16.8035 9.23764 16.8242 9.20665 16.8383 9.17255C16.8524 9.13844 16.8597 9.10189 16.8597 9.06497V6.67808C16.8597 6.64117 16.8524 6.60461 16.8383 6.57051C16.8242 6.5364 16.8035 6.50541 16.7774 6.47931C16.7513 6.4532 16.7203 6.4325 16.6862 6.41837C16.6521 6.40424 16.6155 6.39697 16.5786 6.39697Z" fill="white"/>
<path d="M16.5786 11.1017H13.6895C13.615 11.1017 13.5435 11.1314 13.4907 11.1841C13.438 11.2368 13.4084 11.3083 13.4084 11.3829V14.4189C13.4084 14.5952 13.333 14.7626 13.2027 14.8814C13.089 14.9836 12.9407 15.0411 12.7874 15.0411H8.42125C8.34669 15.0411 8.27519 15.0708 8.22247 15.1235C8.16975 15.1762 8.14014 15.2477 8.14014 15.3222V17.7142C8.14014 17.8701 8.26664 17.9954 8.42125 17.9954H12.9433C13.0179 17.9954 13.0894 17.9657 13.1421 17.913C13.1948 17.8603 13.2244 17.7888 13.2244 17.7142V15.5126C13.2244 15.3363 13.2998 15.1689 13.4301 15.0501L13.4391 15.0424C13.5528 14.9402 13.701 14.8827 13.8544 14.8827H16.5799C16.6168 14.8827 16.6533 14.8754 16.6874 14.8613C16.7215 14.8472 16.7525 14.8265 16.7786 14.8004C16.8047 14.7743 16.8254 14.7433 16.8396 14.7092C16.8537 14.675 16.861 14.6385 16.861 14.6016V11.3829C16.8597 11.227 16.7345 11.1017 16.5786 11.1017Z" fill="white"/>
<defs>
<linearGradient id="paint0_linear_755_18184" x1="1.36389" y1="12.1956" x2="23.6361" y2="12.1956" gradientUnits="userSpaceOnUse">
<stop stop-color="#652EE3"/>
<stop offset="0.548" stop-color="#4662E4"/>
<stop offset="1" stop-color="#48A2E5"/>
</linearGradient>
</defs>
</svg>
