<svg width="22" height="22" viewBox="0 0 22 22" fill="none" xmlns="http://www.w3.org/2000/svg">
<path opacity="0.4" d="M17.2416 8.26917C16.8277 8.26917 16.2795 8.26 15.5969 8.26C13.9323 8.26 12.5636 6.88225 12.5636 5.202V2.254C12.5636 2.02209 12.3784 1.83325 12.1488 1.83325H7.30015C5.0374 1.83325 3.2085 3.69042 3.2085 5.9665V15.8436C3.2085 18.2315 5.12453 20.1666 7.48894 20.1666H14.7092C16.9638 20.1666 18.7918 18.3213 18.7918 16.0434V8.68167C18.7918 8.44883 18.6076 8.26092 18.377 8.26183C17.9895 8.26458 17.5248 8.26917 17.2416 8.26917Z" fill="#56555C"/>
<path opacity="0.4" d="M14.7438 2.35318C14.4697 2.06809 13.9912 2.26426 13.9912 2.65934V5.0766C13.9912 6.09043 14.8263 6.92459 15.8401 6.92459C16.479 6.93193 17.3664 6.93376 18.1199 6.93193C18.5058 6.93101 18.702 6.46993 18.4343 6.19126C17.4672 5.18568 15.7356 3.38351 14.7438 2.35318Z" fill="#56555C"/>
<path d="M13.2169 13.6517C13.5936 13.6517 13.8998 13.9579 13.8998 14.3347C13.8998 14.7114 13.5936 15.0167 13.2169 15.0167H8.22653C7.84978 15.0167 7.54453 14.7114 7.54453 14.3347C7.54453 13.9579 7.84978 13.6517 8.22653 13.6517H13.2169ZM11.3294 9.07373C11.7061 9.07373 12.0123 9.3799 12.0123 9.75665C12.0123 10.1334 11.7061 10.4386 11.3294 10.4386H8.22643C7.84968 10.4386 7.54443 10.1334 7.54443 9.75665C7.54443 9.3799 7.84968 9.07373 8.22643 9.07373H11.3294Z" fill="#56555C"/>
</svg>
